<?xml version="1.0" encoding="UTF-8"?>
<svg xmlns="http://www.w3.org/2000/svg" height="375">
   <g transform="translate(30, 330)">
      <line x1="30"
            x2="30"
            y1="0"
            y2="-300"
            stroke="black"
            stroke-width="1"/>
      <line x1="30"
            x2="300"
            y1="0"
            y2="0"
            stroke="black"
            stroke-width="1"/>
      <text x="25" y="5" text-anchor="end">0</text>
      <text x="25" y="-145" text-anchor="end">25</text>
      <text x="25" y="-290" text-anchor="end">50</text>
      <text x="165" y="40" text-anchor="middle">Part of Speech</text>
      <text x="10"
            y="-145"
            transform="rotate(270, 2, -145)"
            text-anchor="middle">Number
                    of 3-Rated Scary Words</text>
      <text x="165" y="-305" text-anchor="middle">The Old Nurse's Story</text>
      <rect x="50"
            y="-204"
            stroke="black"
            stroke-width=".5"
            fill="blue"
            width="30"
            height="204"/>
      <text x="65" y="-207" text-anchor="middle">34</text>
      <text x="65" y="20" text-anchor="middle">noun</text>
      <rect x="100"
            y="-234"
            stroke="black"
            stroke-width=".5"
            fill="red"
            width="30"
            height="234"/>
      <text x="115" y="-237" text-anchor="middle">39</text>
      <text x="115" y="20" text-anchor="middle">adj</text>
      <rect x="150"
            y="-156"
            stroke="black"
            stroke-width=".5"
            fill="yellow"
            width="30"
            height="156"/>
      <text x="165" y="-159" text-anchor="middle">26</text>
      <text x="165" y="20" text-anchor="middle">verb</text>
      <rect x="200"
            y="-12"
            stroke="black"
            stroke-width=".5"
            fill="green"
            width="30"
            height="12"/>
      <text x="215" y="-15" text-anchor="middle">2</text>
      <text x="215" y="20" text-anchor="middle">adv</text>
      <rect x="250"
            y="-0"
            stroke="black"
            stroke-width=".5"
            fill="purple"
            width="30"
            height="0"/>
      <text x="265" y="-3" text-anchor="middle">0</text>
      <text x="265" y="20" text-anchor="middle">intens</text>
   </g>
</svg>
