<?xml version="1.0" encoding="UTF-8"?>
<svg xmlns="http://www.w3.org/2000/svg" height="500">
      <link rel="stylesheet" type="text/css" href="local.css"/>
   <g transform="translate(30, 330)">
      <line x1="20"
            x2="20"
            y1="0"
            y2="-250"
            stroke="black"
            stroke-width="1"/>
      <line x1="20"
            x2="1550"
            y1="0"
            y2="0"
            stroke="black"
            stroke-width="1"/>
      <line x1="20"
            x2="1550"
            y1="-100"
            y2="-100"
            stroke="black"
            opacity="0.5"
            stroke-dasharray="8 4"
            stroke-width="1"/>
      <line x1="20"
            x2="1550"
            y1="-200"
            y2="-200"
            stroke="black"
            opacity="0.5"
            stroke-dasharray="8 4"
            stroke-width="1"/>
      <text x="10" y="5" text-anchor="end">0</text>
      <text x="10" y="-200" text-anchor="end">200</text>
      <text x="10" y="-100" text-anchor="end">100</text>
         <text x="5" y="-125" transform="rotate(270, -36, -145)" text-anchor="end">Number of Words</text>
      <text x="580" y="30" text-anchor="middle">Scariness Scale</text>
      <rect x="960"
            y="15"
            stroke="black"
            fill="pink"
            height="10"
            width="10"
            class="JohnCharringtonsWedding"/>
      <text x="975" y="25" stroke="black">John Charrington's Wedding</text>
      <rect x="960"
            y="45"
            stroke="black"
            fill="pink"
            height="10"
            width="10"
            class="TheShadowintheCorner"/>
      <text x="975" y="55" stroke="black">The Shadow in the Corner</text>
      <rect x="960"
            y="75"
            stroke="black"
            fill="pink"
            height="10"
            width="10"
            class="TheOldHouseinVauxhallWalk"/>
      <text x="975" y="85" stroke="black">The Old House in Vauxhall Walk</text>
      <rect x="960"
            y="105"
            stroke="black"
            fill="pink"
            height="10"
            width="10"
            class="WalnutTreeHouse"/>
      <text x="975" y="115" stroke="black">Walnut-Tree House</text>
      <rect x="960"
            y="135"
            stroke="black"
            fill="pink"
            height="10"
            width="10"
            class="TheOldNursesStory"/>
      <text x="975" y="145" stroke="black">The Old Nurse's Story</text>


      <rect x="20"
            y="-36"
            stroke="black"
            stroke-width=".5"
            fill="blue"
            width="20"
            height="36"
            class="JohnCharringtonsWedding"/>
      <text x="20" y="-36">36</text>
      <text x="100" y="15" text-anchor="middle">1</text>
      <rect x="60"
            y="-222"
            stroke="black"
            stroke-width=".5"
            fill="blue"
            width="20"
            height="222"
            class="TheShadowintheCorner"/>
      <text x="60" y="-222">222</text>
      <text x="100" y="15" text-anchor="middle">1</text>
      <rect x="100"
            y="-123"
            stroke="black"
            stroke-width=".5"
            fill="blue"
            width="20"
            height="123"
            class="TheOldHouseinVauxhallWalk"/>
      <text x="100" y="-123">123</text>
      <text x="100" y="15" text-anchor="middle">1</text>
      <rect x="140"
            y="-224"
            stroke="black"
            stroke-width=".5"
            fill="blue"
            width="20"
            height="224"
            class="WalnutTreeHouse"/>
      <text x="140" y="-224">224</text>
      <text x="100" y="15" text-anchor="middle">1</text>
      <rect x="180"
            y="-137"
            stroke="black"
            stroke-width=".5"
            fill="blue"
            width="20"
            height="137"
            class="TheOldNursesStory"/>
      <text x="180" y="-137">137</text>
      <text x="100" y="15" text-anchor="middle">1</text>


      <rect x="255"
            y="-21"
            stroke="black"
            stroke-width=".5"
            fill="red"
            width="20"
            height="21"
            class="JohnCharringtonsWedding"/>
      <text x="255" y="-21">21</text>
      <text x="335" y="15" text-anchor="middle">2</text>
      <rect x="295"
            y="-113"
            stroke="black"
            stroke-width=".5"
            fill="red"
            width="20"
            height="113"
            class="TheShadowintheCorner"/>
      <text x="295" y="-113">113</text>
      <text x="335" y="15" text-anchor="middle">2</text>
      <rect x="335"
            y="-80"
            stroke="black"
            stroke-width=".5"
            fill="red"
            width="20"
            height="80"
            class="TheOldHouseinVauxhallWalk"/>
      <text x="335" y="-80">80</text>
      <text x="335" y="15" text-anchor="middle">2</text>
      <rect x="375"
            y="-191"
            stroke="black"
            stroke-width=".5"
            fill="red"
            width="20"
            height="191"
            class="WalnutTreeHouse"/>
      <text x="375" y="-191">191</text>
      <text x="335" y="15" text-anchor="middle">2</text>
      <rect x="415"
            y="-190"
            stroke="black"
            stroke-width=".5"
            fill="red"
            width="20"
            height="190"
            class="TheOldNursesStory"/>
      <text x="415" y="-190">190</text>
      <text x="335" y="15" text-anchor="middle">2</text>


      <rect x="490"
            y="-23"
            stroke="black"
            stroke-width=".5"
            fill="orange"
            width="20"
            height="23"
            class="JohnCharringtonsWedding"/>
      <text x="490" y="-23">23</text>
      <text x="570" y="15" text-anchor="middle">3</text>
      <rect x="530"
            y="-32"
            stroke="black"
            stroke-width=".5"
            fill="orange"
            width="20"
            height="32"
            class="TheShadowintheCorner"/>
      <text x="530" y="-32">32</text>
      <text x="570" y="15" text-anchor="middle">3</text>
      <rect x="570"
            y="-35"
            stroke="black"
            stroke-width=".5"
            fill="orange"
            width="20"
            height="35"
            class="TheOldHouseinVauxhallWalk"/>
      <text x="570" y="-35">35</text>
      <text x="570" y="15" text-anchor="middle">3</text>
      <rect x="610"
            y="-61"
            stroke="black"
            stroke-width=".5"
            fill="orange"
            width="20"
            height="61"
            class="WalnutTreeHouse"/>
      <text x="610" y="-61">61</text>
      <text x="570" y="15" text-anchor="middle">3</text>
      <rect x="650"
            y="-101"
            stroke="black"
            stroke-width=".5"
            fill="orange"
            width="20"
            height="101"
            class="TheOldNursesStory"/>
      <text x="650" y="-101">101</text>
      <text x="570" y="15" text-anchor="middle">3</text>


      <rect x="725"
            y="-12"
            stroke="black"
            stroke-width=".5"
            fill="green"
            width="20"
            height="12"
            class="JohnCharringtonsWedding"/>
      <text x="725" y="-12">12</text>
      <text x="805" y="15" text-anchor="middle">0</text>
      <rect x="765"
            y="-5"
            stroke="black"
            stroke-width=".5"
            fill="green"
            width="20"
            height="5"
            class="TheShadowintheCorner"/>
      <text x="765" y="-5">5</text>
      <text x="805" y="15" text-anchor="middle">0</text>
      <rect x="805"
            y="-171"
            stroke="black"
            stroke-width=".5"
            fill="green"
            width="20"
            height="171"
            class="TheOldHouseinVauxhallWalk"/>
      <text x="805" y="-171">171</text>
      <text x="805" y="15" text-anchor="middle">0</text>
      <rect x="845"
            y="-82"
            stroke="black"
            stroke-width=".5"
            fill="green"
            width="20"
            height="82"
            class="WalnutTreeHouse"/>
      <text x="845" y="-82">82</text>
      <text x="805" y="15" text-anchor="middle">0</text>
      <rect x="885"
            y="-76"
            stroke="black"
            stroke-width=".5"
            fill="green"
            width="20"
            height="76"
            class="TheOldNursesStory"/>
      <text x="885" y="-76">76</text>
      <text x="805" y="15" text-anchor="middle">0</text>


      <rect x="960"
            y="-1"
            stroke="black"
            stroke-width=".5"
            fill="pink"
            width="20"
            height="1"
            class="JohnCharringtonsWedding"/>
      <text x="960" y="-1">1</text>
      <text x="1040" y="15" text-anchor="middle">i</text>
      <rect x="1000"
            y="-16"
            stroke="black"
            stroke-width=".5"
            fill="pink"
            width="20"
            height="16"
            class="TheShadowintheCorner"/>
      <text x="1000" y="-16">16</text>
      <text x="1040" y="15" text-anchor="middle">i</text>
      <rect x="1040"
            y="-12"
            stroke="black"
            stroke-width=".5"
            fill="pink"
            width="20"
            height="12"
            class="TheOldHouseinVauxhallWalk"/>
      <text x="1040" y="-12">12</text>
      <text x="1040" y="15" text-anchor="middle">i</text>
      <rect x="1080"
            y="-25"
            stroke="black"
            stroke-width=".5"
            fill="pink"
            width="20"
            height="25"
            class="WalnutTreeHouse"/>
      <text x="1080" y="-25">25</text>
      <text x="1040" y="15" text-anchor="middle">i</text>
      <rect x="1120"
            y="-45"
            stroke="black"
            stroke-width=".5"
            fill="pink"
            width="20"
            height="45"
            class="TheOldNursesStory"/>
      <text x="1120" y="-45">45</text>
      <text x="1040" y="15" text-anchor="middle">i</text>

   </g>
</svg>
